<svg id="Layer_1" data-name="Layer 1" xmlns="http://www.w3.org/2000/svg" viewBox="0 0 805 805"><defs><style>.cls-1{fill:#595959;}.cls-1,.cls-2,.cls-3,.cls-4,.cls-5,.cls-6{fill-rule:evenodd;}.cls-2{fill:#500000;}.cls-3{fill:#780000;}.cls-4,.cls-7{fill:#999;}.cls-5{fill:#b40000;}.cls-6{fill:#8c0000;}.cls-7{font-size:36.1px;font-family:MyriadPro-Regular, Myriad Pro;letter-spacing:0.4em;}.cls-8{letter-spacing:0.4em;}.cls-9{letter-spacing:0.4em;}.cls-10{letter-spacing:0.36em;}</style></defs><rect width="805" height="805"/><path class="cls-1" d="M664.5,160.65,432.74,139V311.63L664.5,281ZM400.94,633.51V100.24L689.1,136V305.63l-157,30.27V502.27L499.48,535V342.2l-66.74,12.87V601.68Z" transform="translate(2 3)"/><polygon class="cls-2" points="434.74 142 587.21 196.2 606.41 203.04 666.5 163.65 614.9 215.25 598.22 208.47 598.16 208.47 434.74 142"/><polygon class="cls-3" points="666.5 163.65 587.21 196.2 434.74 142 666.5 163.65"/><path class="cls-4" d="M400.94,100.24V633.51l-31.83-31.83V139L189,155.67h0l-51.56,5V281l33.12,4.17q49.6,6.63,99.23,13.32V225.12l32.7,1V535l-32.7-32.7V335.9l-157-30.27V136Z" transform="translate(2 3)"/><polygon class="cls-5" points="371.11 142 218.72 196.2 139.35 163.65 190.91 158.67 190.94 158.67 371.11 142"/><polygon class="cls-6" points="139.35 163.65 199.46 203.04 218.72 196.2 371.11 142 207.71 208.47 207.65 208.47 190.94 215.25 139.35 163.65"/><text class="cls-7" transform="translate(50.73 735.54) scale(1.07 1)">G<tspan class="cls-8" x="37.76" y="0">A</tspan><tspan class="cls-9" x="74.16" y="0">MERS</tspan><tspan class="cls-10" x="215.94" y="0"> </tspan><tspan x="236.55" y="0">TECH REPUBLIC</tspan></text></svg>